<svg width="24" height="25" viewBox="0 0 24 25" fill="none" xmlns="http://www.w3.org/2000/svg">
<path d="M3.42859 17.6112C3.42859 18.3466 4.00309 18.8406 4.97973 18.8406H8.49562C8.57605 20.5986 10.0008 22.1957 12 22.1957C13.9878 22.1957 15.4125 20.5986 15.5044 18.8406H19.0203C19.997 18.8406 20.5714 18.3466 20.5714 17.6112C20.5714 16.715 19.6293 15.8877 18.8365 15.0949C18.3194 14.5779 18.1126 13.5093 18.0897 12.705C18.0897 12.0616 18.0552 11.4642 18.0092 10.8897C17.5266 11.039 16.8717 11.1195 16.3777 11.0735C16.4236 11.5905 16.4581 12.165 16.4581 12.82C16.4811 14.4975 16.8832 15.3822 17.4232 16.0026C17.8713 16.5082 18.3654 16.9678 18.5607 17.1746V17.2895H5.43932V17.1746C5.63465 16.9678 6.12871 16.5082 6.57681 16.0026C7.11683 15.3822 7.51898 14.4975 7.54195 12.82C7.55346 8.52275 8.80583 7.30482 10.334 6.8797C10.5408 6.83375 10.6442 6.71884 10.6442 6.51203C10.6557 5.55836 11.1843 4.92642 12 4.92642C12.1379 4.92642 12.2758 4.93791 12.3907 4.97238C12.5745 4.50131 12.8273 4.0532 13.149 3.67402C12.8043 3.51316 12.4251 3.42125 12 3.42125C10.6212 3.42125 9.63312 4.3749 9.2999 5.52391C6.84107 6.46607 5.92189 8.86743 5.8989 12.705C5.88742 13.5093 5.66912 14.5779 5.16355 15.0949C4.35928 15.8877 3.42859 16.715 3.42859 17.6112ZM10.0927 18.8406H13.9073C13.8384 20.0126 13.0686 20.7594 12 20.7594C10.92 20.7594 10.1617 20.0126 10.0927 18.8406ZM16.6649 9.76364C18.4114 9.76364 19.8706 8.31593 19.8706 6.5465C19.8706 4.78855 18.4114 3.34082 16.6649 3.34082C14.8955 3.34082 13.4477 4.78855 13.4477 6.5465C13.4477 8.31593 14.8955 9.76364 16.6649 9.76364Z" fill="black"/>
</svg>
