<svg width="24" height="25" viewBox="0 0 24 25" fill="none" xmlns="http://www.w3.org/2000/svg">
<path d="M6 12.0971C6 12.3017 6.08274 12.476 6.23223 12.6299L13.4585 19.5979C13.5928 19.7402 13.7751 19.8114 13.9806 19.8114C14.3887 19.8114 14.7045 19.5028 14.7045 19.0875C14.7045 18.8856 14.6254 18.7113 14.4947 18.5726L7.78403 12.0971L14.4947 5.62161C14.6254 5.48291 14.7045 5.30062 14.7045 5.10674C14.7045 4.69141 14.3887 4.38281 13.9806 4.38281C13.7751 4.38281 13.5928 4.45396 13.4585 4.59627L6.23223 11.5643C6.08274 11.7182 6 11.8924 6 12.0971Z" fill="black"/>
</svg>
