<svg width="24" height="25" viewBox="0 0 24 25" fill="none" xmlns="http://www.w3.org/2000/svg">
<path d="M5.25255 22.5872H18.7475C20.9286 22.5872 22 21.5158 22 19.3729V7.20452C22 5.06167 20.9286 3.99023 18.7475 3.99023H5.25255C3.08418 3.99023 2 5.06167 2 7.20452V19.3729C2 21.5158 3.08418 22.5872 5.25255 22.5872ZM5.07398 20.7377C4.28318 20.7377 3.83674 20.3168 3.83674 19.4877V9.89584C3.83674 9.06677 4.28318 8.64586 5.07398 8.64586H18.9133C19.7041 8.64586 20.1633 9.06677 20.1633 9.89584V19.4877C20.1633 20.3168 19.7041 20.7377 18.9133 20.7377H5.07398ZM10.0612 12.2555H10.648C11.0306 12.2555 11.1582 12.128 11.1582 11.7581V11.1714C11.1582 10.8015 11.0306 10.6739 10.648 10.6739H10.0612C9.69133 10.6739 9.56378 10.8015 9.56378 11.1714V11.7581C9.56378 12.128 9.69133 12.2555 10.0612 12.2555ZM13.3521 12.2555H13.9388C14.3087 12.2555 14.4362 12.128 14.4362 11.7581V11.1714C14.4362 10.8015 14.3087 10.6739 13.9388 10.6739H13.3521C12.9694 10.6739 12.8418 10.8015 12.8418 11.1714V11.7581C12.8418 12.128 12.9694 12.2555 13.3521 12.2555ZM16.6301 12.2555H17.2168C17.5867 12.2555 17.727 12.128 17.727 11.7581V11.1714C17.727 10.8015 17.5867 10.6739 17.2168 10.6739H16.6301C16.2474 10.6739 16.1199 10.8015 16.1199 11.1714V11.7581C16.1199 12.128 16.2474 12.2555 16.6301 12.2555ZM6.78317 15.4826H7.36991C7.75255 15.4826 7.88011 15.355 7.88011 14.9851V14.3984C7.88011 14.0285 7.75255 13.901 7.36991 13.901H6.78317C6.41328 13.901 6.27295 14.0285 6.27295 14.3984V14.9851C6.27295 15.355 6.41328 15.4826 6.78317 15.4826ZM10.0612 15.4826H10.648C11.0306 15.4826 11.1582 15.355 11.1582 14.9851V14.3984C11.1582 14.0285 11.0306 13.901 10.648 13.901H10.0612C9.69133 13.901 9.56378 14.0285 9.56378 14.3984V14.9851C9.56378 15.355 9.69133 15.4826 10.0612 15.4826ZM13.3521 15.4826H13.9388C14.3087 15.4826 14.4362 15.355 14.4362 14.9851V14.3984C14.4362 14.0285 14.3087 13.901 13.9388 13.901H13.3521C12.9694 13.901 12.8418 14.0285 12.8418 14.3984V14.9851C12.8418 15.355 12.9694 15.4826 13.3521 15.4826ZM16.6301 15.4826H17.2168C17.5867 15.4826 17.727 15.355 17.727 14.9851V14.3984C17.727 14.0285 17.5867 13.901 17.2168 13.901H16.6301C16.2474 13.901 16.1199 14.0285 16.1199 14.3984V14.9851C16.1199 15.355 16.2474 15.4826 16.6301 15.4826ZM6.78317 18.7096H7.36991C7.75255 18.7096 7.88011 18.5821 7.88011 18.2122V17.6254C7.88011 17.2556 7.75255 17.128 7.36991 17.128H6.78317C6.41328 17.128 6.27295 17.2556 6.27295 17.6254V18.2122C6.27295 18.5821 6.41328 18.7096 6.78317 18.7096ZM10.0612 18.7096H10.648C11.0306 18.7096 11.1582 18.5821 11.1582 18.2122V17.6254C11.1582 17.2556 11.0306 17.128 10.648 17.128H10.0612C9.69133 17.128 9.56378 17.2556 9.56378 17.6254V18.2122C9.56378 18.5821 9.69133 18.7096 10.0612 18.7096ZM13.3521 18.7096H13.9388C14.3087 18.7096 14.4362 18.5821 14.4362 18.2122V17.6254C14.4362 17.2556 14.3087 17.128 13.9388 17.128H13.3521C12.9694 17.128 12.8418 17.2556 12.8418 17.6254V18.2122C12.8418 18.5821 12.9694 18.7096 13.3521 18.7096Z" fill="black"/>
</svg>
