<svg width="24" height="24" viewBox="0 0 24 24" fill="none" xmlns="http://www.w3.org/2000/svg">
<path d="M4.62344 19.5349H19.3764C21.1254 19.5349 22 18.6707 22 16.9423V8.52671C22 6.79833 21.1254 5.94443 19.3764 5.94443H17.1028C16.4752 5.94443 16.2798 5.79009 15.93 5.40945L15.3024 4.69958C14.9012 4.26748 14.4691 4 13.6255 4H10.3642C9.51026 4 9.07816 4.26748 8.68721 4.69958L8.04936 5.40945C7.70984 5.79009 7.50409 5.94443 6.88681 5.94443H4.62344C2.87448 5.94443 2 6.79833 2 8.52671V16.9423C2 18.6707 2.87448 19.5349 4.62344 19.5349ZM4.64403 18.0431C3.90328 18.0431 3.48148 17.6522 3.48148 16.8703V8.60903C3.48148 7.82713 3.90328 7.42589 4.64403 7.42589H7.27776C7.99791 7.42589 8.39914 7.27158 8.80037 6.82919L9.40737 6.13989C9.87032 5.6255 10.107 5.48146 10.8477 5.48146H13.1316C13.8724 5.48146 14.109 5.6255 14.572 6.13989L15.1892 6.82919C15.5802 7.27158 15.9917 7.42589 16.7118 7.42589H19.3559C20.0863 7.42589 20.5081 7.82713 20.5081 8.60903V16.8703C20.5081 17.6522 20.0863 18.0431 19.3559 18.0431H4.64403ZM12 16.9732C14.4279 16.9732 16.3723 15.0287 16.3723 12.5802C16.3723 10.1419 14.4279 8.19749 12 8.19749C9.57197 8.19749 7.61726 10.1419 7.61726 12.5802C7.61726 15.0287 9.57197 16.9732 12 16.9732ZM12 15.5843C10.3539 15.5843 8.99586 14.2469 8.99586 12.5802C8.99586 10.9135 10.3436 9.58637 12 9.58637C13.6563 9.58637 14.9937 10.9135 14.9937 12.5802C14.9937 14.2469 13.6563 15.5843 12 15.5843ZM16.6707 9.60696C16.6707 10.1728 17.1337 10.6255 17.6995 10.6255C18.2551 10.6255 18.718 10.1728 18.718 9.60696C18.718 9.05141 18.2551 8.57816 17.6995 8.57816C17.1337 8.57816 16.6707 9.05141 16.6707 9.60696Z" fill="#545456"/>
</svg>
