<svg width="12" height="12" viewBox="0 0 12 12" fill="none" xmlns="http://www.w3.org/2000/svg">
<path d="M4.85734 10.8544C5.14119 10.8544 5.36681 10.7307 5.52692 10.4833L10.8326 2.0917C10.9563 1.90248 11 1.74964 11 1.5968C11 1.24017 10.7671 1 10.4032 1C10.1412 1 9.99563 1.08735 9.83552 1.34206L4.82823 9.377L2.19359 5.82533C2.0262 5.59971 1.86609 5.50509 1.6259 5.50509C1.262 5.50509 1 5.75982 1 6.12372C1 6.27656 1.06551 6.44395 1.18924 6.60408L4.16594 10.4687C4.36972 10.7307 4.5735 10.8544 4.85734 10.8544Z" fill="#D5D5D5"/>
</svg>
