<svg width="24" height="24" viewBox="0 0 24 24" fill="none" xmlns="http://www.w3.org/2000/svg">
<path d="M5.87161 21.4284H18.1281C20.3413 21.4284 21.4284 20.342 21.4284 18.1692V5.83055C21.4284 3.65772 20.3413 2.57129 18.1281 2.57129H5.87161C3.67139 2.57129 2.57129 3.65772 2.57129 5.83055V18.1692C2.57129 20.342 3.67139 21.4284 5.87161 21.4284ZM10.8544 16.9663C10.4533 16.9663 10.1297 16.8112 9.81907 16.3973L7.41175 13.3837C7.24352 13.1639 7.13999 12.9052 7.13999 12.6465C7.13999 12.1163 7.54118 11.6894 8.07184 11.6894C8.3954 11.6894 8.65423 11.7929 8.93898 12.1809L10.8027 14.6642L14.9313 7.99046C15.1514 7.62831 15.449 7.44724 15.7596 7.44724C16.2644 7.44724 16.7433 7.78353 16.7433 8.33967C16.7433 8.59833 16.588 8.86994 16.4456 9.10274L11.8251 16.3973C11.5922 16.7853 11.2557 16.9663 10.8544 16.9663Z" fill="#0068FF"/>
</svg>
