<svg width="24" height="25" viewBox="0 0 24 25" fill="none" xmlns="http://www.w3.org/2000/svg">
<path d="M7.53622 13.9766H11.9833C12.3734 13.9766 12.6743 13.6757 12.6743 13.2967V7.5568C12.6743 7.1667 12.3734 6.86579 11.9833 6.86579C11.6043 6.86579 11.3034 7.1667 11.3034 7.5568V12.6057H7.53622C7.14613 12.6057 6.85635 12.9066 6.85635 13.2967C6.85635 13.6757 7.14613 13.9766 7.53622 13.9766ZM11.9944 21.9791C16.9096 21.9791 21 17.8998 21 12.9847C21 8.06949 16.8984 3.99023 11.9833 3.99023C7.07925 3.99023 3 8.06949 3 12.9847C3 17.8998 7.09041 21.9791 11.9944 21.9791ZM11.9944 20.285C7.9486 20.285 4.71641 17.0416 4.71641 12.9847C4.71641 8.9277 7.93746 5.68436 11.9833 5.68436C16.0402 5.68436 19.2947 8.9277 19.2947 12.9847C19.2947 17.0416 16.0514 20.285 11.9944 20.285Z" fill="black"/>
</svg>
