<svg width="28" height="28" viewBox="0 0 28 28" fill="none" xmlns="http://www.w3.org/2000/svg">
<path d="M4.56158 27.9996H21.1085C23.6486 27.9996 25.1692 26.5127 25.1692 23.503V8.47254L22.5753 11.0523V23.3597C22.5753 24.7212 21.8419 25.4199 21.0727 25.4199H4.59738C3.30938 25.4199 2.59384 24.7212 2.59384 23.3597V7.4514C2.59384 6.0899 3.30938 5.39122 4.59738 5.39122H17.0836L19.6595 2.81152H4.56158C1.53844 2.81152 0 4.29843 0 7.3081V23.503C0 26.5127 1.53844 27.9996 4.56158 27.9996Z" fill="#F4F4F4"/>
<path d="M9.44513 19.0247L12.3788 17.7707L25.4732 4.65716L23.3624 2.59694L10.2859 15.6926L8.96212 18.5231C8.8369 18.7918 9.14101 19.1501 9.44513 19.0247ZM26.5644 3.56433L27.6378 2.47154C28.1208 1.95202 28.1208 1.19959 27.6378 0.715915L27.2442 0.321761C26.7791 -0.144011 26.0278 -0.0902592 25.5627 0.393453L24.4715 1.4683L26.5644 3.56433Z" fill="#F4F4F4"/>
</svg>
