<svg width="79" height="79" viewBox="0 0 79 79" fill="none" xmlns="http://www.w3.org/2000/svg">
<path d="M39.4758 78.3449C60.7164 78.3449 78.3928 60.7167 78.3928 39.4762C78.3928 18.2356 60.6682 0.607422 39.4277 0.607422C18.2353 0.607422 0.607117 18.2356 0.607117 39.4762C0.607117 60.7167 18.2835 78.3449 39.4758 78.3449ZM39.4758 71.0239C21.9921 71.0239 8.02448 57.008 8.02448 39.4762C8.02448 21.9443 21.944 7.92846 39.4277 7.92846C56.9595 7.92846 71.0237 21.9443 71.0237 39.4762C71.0237 57.008 57.0078 71.0239 39.4758 71.0239ZM65.4366 64.5217L65.292 64.04C63.5581 58.4048 53.4917 52.4325 39.4758 52.4325C25.46 52.4325 15.4418 58.4048 13.7079 64.04L13.5634 64.5217C20.4509 71.2166 32.6847 75.0216 39.4758 75.0216C46.3152 75.0216 58.5491 71.2166 65.4366 64.5217ZM39.4758 46.0747C46.7487 46.171 52.4803 39.9578 52.4803 31.818C52.4803 24.1599 46.7487 17.8503 39.4758 17.8503C32.2512 17.8503 26.4714 24.1599 26.5197 31.818C26.5678 39.9578 32.203 45.9784 39.4758 46.0747Z" fill="#242426"/>
</svg>
