<svg width="64" height="64" viewBox="0 0 64 64" fill="none" xmlns="http://www.w3.org/2000/svg">
<g filter="url(#filter0_dd_1534_7322)">
<circle cx="32" cy="31" r="28" fill="#0068FF"/>
</g>
<path d="M28.0228 25.2051H29.641V23.2906C29.641 22.8234 29.9715 22.5157 30.4501 22.5157H33.5385C34.0057 22.5157 34.3362 22.8234 34.3362 23.2906V25.2051H35.9658V23.1766C35.9658 21.8319 35.0883 21 33.6524 21H30.3248C28.9003 21 28.0228 21.8319 28.0228 23.1766V25.2051ZM24.0456 26.0143H39.9544C40.3761 26.0143 40.7066 25.6724 40.7066 25.2507C40.7066 24.8291 40.3647 24.4872 39.9544 24.4872H24.0456C23.6467 24.4872 23.2935 24.8291 23.2935 25.2507C23.2935 25.6724 23.6467 26.0143 24.0456 26.0143ZM27.886 41H36.1254C37.4815 41 38.359 40.1567 38.4274 38.7892L39.02 25.8433H37.3903L36.8205 38.6182C36.7977 39.1311 36.4559 39.4729 35.9544 39.4729H28.0342C27.5556 39.4729 27.2023 39.1197 27.1795 38.6182L26.5755 25.8433H24.9801L25.584 38.8006C25.6524 40.1681 26.5071 41 27.886 41ZM29.3675 38.0598C29.755 38.0598 30.0057 37.8205 29.9943 37.4672L29.7322 28.1225C29.7208 27.7578 29.4701 27.5299 29.1054 27.5299C28.7294 27.5299 28.4672 27.7692 28.4786 28.1225L28.7407 37.4672C28.7521 37.8319 29.0029 38.0598 29.3675 38.0598ZM32 38.0598C32.3875 38.0598 32.6496 37.8205 32.6496 37.4672V28.1225C32.6496 27.7692 32.3875 27.5299 32 27.5299C31.6125 27.5299 31.3504 27.7692 31.3504 28.1225V37.4672C31.3504 37.8205 31.6125 38.0598 32 38.0598ZM34.6439 38.0598C34.9972 38.0598 35.2593 37.8319 35.2707 37.4672L35.5214 28.1225C35.5328 27.7692 35.2821 27.5299 34.8946 27.5299C34.5299 27.5299 34.2792 27.7692 34.2678 28.1225L34.0171 37.4672C34.0057 37.8205 34.2564 38.0598 34.6439 38.0598Z" fill="white"/>
<defs>
<filter id="filter0_dd_1534_7322" x="0" y="0" width="64" height="64" filterUnits="userSpaceOnUse" color-interpolation-filters="sRGB">
<feFlood flood-opacity="0" result="BackgroundImageFix"/>
<feColorMatrix in="SourceAlpha" type="matrix" values="0 0 0 0 0 0 0 0 0 0 0 0 0 0 0 0 0 0 127 0" result="hardAlpha"/>
<feMorphology radius="1" operator="dilate" in="SourceAlpha" result="effect1_dropShadow_1534_7322"/>
<feOffset dy="1"/>
<feGaussianBlur stdDeviation="1.5"/>
<feColorMatrix type="matrix" values="0 0 0 0 0 0 0 0 0 0 0 0 0 0 0 0 0 0 0.15 0"/>
<feBlend mode="normal" in2="BackgroundImageFix" result="effect1_dropShadow_1534_7322"/>
<feColorMatrix in="SourceAlpha" type="matrix" values="0 0 0 0 0 0 0 0 0 0 0 0 0 0 0 0 0 0 127 0" result="hardAlpha"/>
<feOffset dy="1"/>
<feGaussianBlur stdDeviation="1"/>
<feColorMatrix type="matrix" values="0 0 0 0 0 0 0 0 0 0 0 0 0 0 0 0 0 0 0.3 0"/>
<feBlend mode="normal" in2="effect1_dropShadow_1534_7322" result="effect2_dropShadow_1534_7322"/>
<feBlend mode="normal" in="SourceGraphic" in2="effect2_dropShadow_1534_7322" result="shape"/>
</filter>
</defs>
</svg>
