<svg width="24" height="24" viewBox="0 0 24 24" fill="none" xmlns="http://www.w3.org/2000/svg">
<path d="M8.02279 6.20514H9.64103V4.29059C9.64103 3.82336 9.97153 3.51566 10.4501 3.51566H13.5385C14.0057 3.51566 14.3362 3.82336 14.3362 4.29059V6.20514H15.9658V4.17662C15.9658 2.8319 15.0883 2 13.6524 2H10.3248C8.90029 2 8.02279 2.8319 8.02279 4.17662V6.20514ZM4.04559 7.01425H19.9544C20.3761 7.01425 20.7066 6.67236 20.7066 6.25072C20.7066 5.82905 20.3647 5.48718 19.9544 5.48718H4.04559C3.64673 5.48718 3.29346 5.82905 3.29346 6.25072C3.29346 6.67236 3.64673 7.01425 4.04559 7.01425ZM7.88605 22H16.1254C17.4815 22 18.359 21.1567 18.4274 19.7892L19.02 6.8433H17.3903L16.8205 19.6182C16.7977 20.1311 16.4559 20.4729 15.9544 20.4729H8.0342C7.55557 20.4729 7.20228 20.1197 7.1795 19.6182L6.57551 6.8433H4.98006L5.58405 19.8006C5.65243 21.1681 6.50713 22 7.88605 22ZM9.36754 19.0598C9.75499 19.0598 10.0057 18.8205 9.99431 18.4672L9.73221 9.12251C9.7208 8.75784 9.47009 8.52991 9.10542 8.52991C8.72936 8.52991 8.46724 8.76923 8.47865 9.12251L8.74075 18.4672C8.75214 18.8319 9.00287 19.0598 9.36754 19.0598ZM12 19.0598C12.3875 19.0598 12.6496 18.8205 12.6496 18.4672V9.12251C12.6496 8.76923 12.3875 8.52991 12 8.52991C11.6125 8.52991 11.3504 8.76923 11.3504 9.12251V18.4672C11.3504 18.8205 11.6125 19.0598 12 19.0598ZM14.6439 19.0598C14.9972 19.0598 15.2593 18.8319 15.2707 18.4672L15.5214 9.12251C15.5328 8.76923 15.2821 8.52991 14.8946 8.52991C14.5299 8.52991 14.2792 8.76923 14.2678 9.12251L14.0171 18.4672C14.0057 18.8205 14.2564 19.0598 14.6439 19.0598Z" fill="white"/>
</svg>
