<svg width="121" height="26" viewBox="0 0 121 26" fill="none" xmlns="http://www.w3.org/2000/svg">
<path d="M35.4149 1.33887H27.564V24.6613H35.4149C43.251 24.6613 48.1271 20.2047 48.1271 13.0263C48.1271 5.84782 43.2584 1.33887 35.4149 1.33887ZM35.497 22.1937H30.0989V3.79898H35.497C41.909 3.79898 45.5846 7.16386 45.5846 13.0263C45.5846 18.8886 41.909 22.1937 35.497 22.1937Z" fill="#005C97"/>
<path d="M62.2858 0.868164C55.3594 0.868164 50.3267 5.96785 50.3267 13.0042C50.3267 20.0406 55.3668 25.1402 62.3156 25.1402C69.2644 25.1402 74.3044 20.0406 74.3044 13.0042C74.3044 5.96785 69.2495 0.868164 62.2858 0.868164ZM62.2858 3.33575C67.7733 3.33575 71.7621 7.40353 71.7621 13.0042C71.7621 18.6049 67.7882 22.6727 62.3156 22.6727C56.8431 22.6727 52.869 18.6049 52.869 13.0042C52.869 7.40353 56.8281 3.33575 62.2858 3.33575Z" fill="#005C97"/>
<path d="M95.2106 8.77153C95.2106 4.1878 91.5946 1.33887 85.7791 1.33887H77.4211V24.6613H79.9635V16.2042H85.7791C86.4501 16.2042 87.0986 16.1668 87.6951 16.092L93.3392 24.6613H96.3737L90.2973 15.4938C93.4288 14.3647 95.2031 11.9644 95.2031 8.77153H95.2106ZM79.9635 13.7441V3.80645H85.5554C88.2171 3.80645 92.6757 4.44952 92.6757 8.77901C92.6757 13.1085 88.2171 13.7516 85.5554 13.7516H79.9635V13.7441Z" fill="#005C97"/>
<path d="M108.981 0.868164C102.047 0.868164 97.022 5.96785 97.022 13.0042C97.022 20.0406 102.062 25.1402 109.011 25.1402C115.96 25.1402 121 20.0406 121 13.0042C121 5.96785 115.833 0.868164 108.989 0.868164H108.981ZM118.457 13.0042C118.457 18.6049 114.484 22.6727 109.011 22.6727C103.538 22.6727 99.5645 18.6049 99.5645 13.0042C99.5645 7.40353 103.523 3.33575 108.989 3.33575C114.454 3.33575 118.465 7.40353 118.465 13.0042H118.457Z" fill="#005C97"/>
<path d="M21.4951 12.151C4.80159 15.6654 0 25.9994 0 25.9994V0H10.6991C16.6638 0 21.4951 5.43617 21.4951 12.151Z" fill="#0072B9"/>
<path d="M21.458 12.1738C20.8093 12.6075 12.0861 18.5372 10.5054 25.9998H8.20898C8.20898 25.9998 11.169 17.5502 21.458 12.1738Z" fill="#99C7E3"/>
<path d="M21.4952 12.1514V13.8562C21.4952 20.5636 16.6639 25.9998 10.6992 25.9998H10.5054C12.086 18.5372 20.8092 12.6075 21.4579 12.1738C21.4728 12.1663 21.4803 12.1588 21.4952 12.1514Z" fill="#0072B9"/>
</svg>
