<svg width="174" height="52" viewBox="0 0 174 52" fill="none" xmlns="http://www.w3.org/2000/svg">
<path d="M63.4435 0.602539H53.3418V30.5035H63.4435C73.5242 30.5035 79.7846 24.7889 79.7846 15.5898C79.7846 6.39067 73.5242 0.602539 63.4435 0.602539ZM63.5537 27.3445H56.6111V3.76161H63.5537C71.7977 3.76161 76.5206 8.06992 76.5206 15.5898C76.5206 23.1096 71.7977 27.3445 63.5537 27.3445Z" fill="#005C97"/>
<path d="M97.9942 0C89.0837 0 82.6187 6.54379 82.6187 15.554C82.6187 24.5642 89.0995 31.108 98.0309 31.108C106.962 31.108 113.443 24.5642 113.443 15.554C113.443 6.54379 106.947 0 97.9942 0ZM97.9942 3.15908C105.052 3.15908 110.179 8.37522 110.179 15.554C110.179 22.7327 105.073 27.9489 98.0309 27.9489C90.9886 27.9489 85.8827 22.7327 85.8827 15.554C85.8827 8.37522 90.9781 3.15908 97.9942 3.15908Z" fill="#005C97"/>
<path d="M140.327 10.1381C140.327 4.26075 135.678 0.608398 128.195 0.608398H117.453V30.5094H120.717V19.6678H128.195C129.055 19.6678 129.884 19.6206 130.661 19.5209L137.924 30.5042H141.828L134.014 18.7495C138.044 17.3064 140.327 14.2208 140.327 10.1328V10.1381ZM120.722 16.5087V3.76747H127.911C131.327 3.76747 137.063 4.5966 137.063 10.1381C137.063 15.6796 131.327 16.5087 127.911 16.5087H120.722Z" fill="#005C97"/>
<path d="M158.037 0C149.127 0 142.656 6.54379 142.656 15.554C142.656 24.5642 149.137 31.108 158.069 31.108C167 31.108 173.481 24.5642 173.481 15.554C173.481 6.54379 166.843 0 158.032 0H158.037ZM170.217 15.554C170.217 22.738 165.111 27.9489 158.069 27.9489C151.026 27.9489 145.92 22.7327 145.92 15.554C145.92 8.37522 151.016 3.15908 158.032 3.15908C165.048 3.15908 170.212 8.37522 170.212 15.554H170.217Z" fill="#005C97"/>
<path d="M53.3472 40.4805H56.7214C60.3842 40.4805 62.3731 42.5533 62.3731 45.6389C62.3731 48.7245 60.379 50.7711 56.7214 50.7711H53.3472V40.4805ZM56.7634 50.2516C59.9015 50.2516 61.8168 48.5828 61.8168 45.6389C61.8168 42.695 59.9015 41 56.7634 41H53.9087V50.2516H56.7634Z" fill="#0072B9"/>
<path d="M64.0258 45.6232C64.0258 42.5219 66.2665 40.2549 69.3259 40.2549C72.3852 40.2549 74.6522 42.5219 74.6522 45.6232C74.6522 48.7246 72.401 50.9915 69.3364 50.9915C66.2717 50.9915 64.0205 48.7246 64.0205 45.6232H64.0258ZM74.096 45.6232C74.096 42.7947 72.0756 40.7744 69.3259 40.7744C66.5761 40.7744 64.5873 42.7947 64.5873 45.6232C64.5873 48.4517 66.6076 50.472 69.3416 50.472C72.0756 50.472 74.1012 48.4359 74.1012 45.6232H74.096Z" fill="#0072B9"/>
<path d="M93.2605 40.4805L90.0017 50.7711H89.4403L86.4176 41.2204L83.395 50.7711H82.8335L79.5747 40.4805H80.1205L83.1169 49.9892L86.129 40.4805H86.7167L89.7289 49.9892L92.7253 40.4805H93.2605Z" fill="#0072B9"/>
<path d="M95.5219 40.4805V50.7711H94.9604V40.4805H95.5219Z" fill="#0072B9"/>
<path d="M105.929 41H101.956V50.7711H101.395V41H97.4067V40.4805H105.929V41Z" fill="#0072B9"/>
<path d="M116.198 40.4805V50.7711H115.637V45.7701H108.369V50.7711H107.807V40.4805H108.369V45.2611H115.637V40.4805H116.198Z" fill="#0072B9"/>
<path d="M129.689 50.7707L127.018 46.7353C126.693 46.7877 126.336 46.814 125.963 46.814H122.915V50.776H122.353V40.4854H125.963C128.556 40.4854 130.083 41.7238 130.083 43.6497C130.083 45.1348 129.185 46.2053 127.595 46.6198L130.361 50.776H129.694L129.689 50.7707ZM129.521 43.6444C129.521 41.9127 128.125 40.9996 125.858 40.9996H122.915V46.2892H125.858C128.125 46.2892 129.521 45.3761 129.521 43.6444Z" fill="#0072B9"/>
<path d="M131.557 45.6232C131.557 42.5219 133.798 40.2549 136.858 40.2549C139.917 40.2549 142.184 42.5219 142.184 45.6232C142.184 48.7246 139.933 50.9915 136.868 50.9915C133.803 50.9915 131.552 48.7246 131.552 45.6232H131.557ZM141.628 45.6232C141.628 42.7947 139.607 40.7744 136.858 40.7744C134.108 40.7744 132.119 42.7947 132.119 45.6232C132.119 48.4517 134.139 50.472 136.873 50.472C139.607 50.472 141.633 48.4359 141.633 45.6232H141.628Z" fill="#0072B9"/>
<path d="M144.273 40.4805H148.256C150.513 40.4805 151.788 41.509 151.788 43.1515C151.788 44.3112 150.98 45.3398 149.873 45.5234C151.2 45.6966 152.281 46.5677 152.281 48.0528C152.281 49.7058 150.938 50.7763 148.645 50.7763H144.268V40.4857L144.273 40.4805ZM148.272 45.324C150.151 45.324 151.232 44.5684 151.232 43.1515C151.232 41.7347 150.151 40.9895 148.272 40.9895H144.835V45.3293H148.272V45.324ZM148.66 50.2621C150.549 50.2621 151.725 49.4906 151.725 48.0476C151.725 46.6045 150.555 45.833 148.66 45.833H144.835V50.2621H148.66Z" fill="#0072B9"/>
<path d="M153.887 45.6232C153.887 42.5219 156.127 40.2549 159.187 40.2549C162.246 40.2549 164.513 42.5219 164.513 45.6232C164.513 48.7246 162.262 50.9915 159.197 50.9915C156.133 50.9915 153.881 48.7246 153.881 45.6232H153.887ZM163.957 45.6232C163.957 42.7947 161.936 40.7744 159.187 40.7744C156.437 40.7744 154.448 42.7947 154.448 45.6232C154.448 48.4517 156.468 50.472 159.202 50.472C161.936 50.472 163.962 48.4359 163.962 45.6232H163.957Z" fill="#0072B9"/>
<path d="M173.486 41H169.513V50.7711H168.952V41H164.969V40.4805H173.486V41Z" fill="#0072B9"/>
<path d="M43.1093 24.3034C9.6294 31.3352 0 52.0004 0 52.0004V0.00683594H21.4576C33.4222 0.00683594 43.1093 10.8799 43.1093 24.3034Z" fill="#0072B9"/>
<path d="M43.0364 24.3438C41.7297 25.2096 24.2394 37.0693 21.0646 51.9935H16.4624C16.4624 51.9935 22.3975 35.0909 43.0364 24.3438Z" fill="#99C7E3"/>
<path d="M43.1093 24.3018V27.718C43.1093 41.1257 33.4221 51.9988 21.4575 51.9988H21.064C24.2388 37.0692 41.7291 25.2149 43.0358 24.349C43.0673 24.3332 43.083 24.3175 43.1093 24.3018Z" fill="#0072B9"/>
</svg>
