<svg width="24" height="24" viewBox="0 0 24 24" fill="none" xmlns="http://www.w3.org/2000/svg">
<path d="M12.0057 16.9921C12.2581 16.9921 12.5104 16.9003 12.6824 16.7054L19.7247 9.61721C19.8968 9.44515 20 9.21577 20 8.95196C20 8.4129 19.5986 8 19.0595 8C18.8072 8 18.5548 8.1147 18.3828 8.27527L11.4667 15.2143H12.5333L5.61721 8.27527C5.44517 8.1147 5.21577 8 4.95198 8C4.4129 8 4 8.4129 4 8.95196C4 9.21577 4.10323 9.44515 4.27527 9.61721L11.329 16.7054C11.5125 16.9003 11.7419 16.9921 12.0057 16.9921Z" fill="#D5D5D5"/>
</svg>
