<svg width="24" height="25" viewBox="0 0 24 25" fill="none" xmlns="http://www.w3.org/2000/svg">
<path d="M12.0057 17.869C12.2581 17.869 12.5104 17.7773 12.6824 17.5823L19.7247 10.4942C19.8968 10.3221 20 10.0927 20 9.82892C20 9.28985 19.5986 8.87695 19.0595 8.87695C18.8072 8.87695 18.5548 8.99165 18.3828 9.15223L11.4667 16.0913H12.5333L5.61721 9.15223C5.44517 8.99165 5.21577 8.87695 4.95198 8.87695C4.4129 8.87695 4 9.28985 4 9.82892C4 10.0927 4.10323 10.3221 4.27527 10.4942L11.329 17.5823C11.5125 17.7773 11.7419 17.869 12.0057 17.869Z" fill="#242426"/>
</svg>
