<svg width="24" height="25" viewBox="0 0 24 25" fill="none" xmlns="http://www.w3.org/2000/svg">
<path d="M12.0057 17.7616C12.2581 17.7616 12.5104 17.6699 12.6824 17.4749L19.7247 10.3867C19.8968 10.2147 20 9.98531 20 9.72149C20 9.18243 19.5986 8.76953 19.0595 8.76953C18.8072 8.76953 18.5548 8.88423 18.3828 9.04481L11.4667 15.9839H12.5333L5.61721 9.04481C5.44517 8.88423 5.21577 8.76953 4.95198 8.76953C4.4129 8.76953 4 9.18243 4 9.72149C4 9.98531 4.10323 10.2147 4.27527 10.3867L11.329 17.4749C11.5125 17.6699 11.7419 17.7616 12.0057 17.7616Z" fill="#7C7C80"/>
</svg>
