<svg width="16" height="9" viewBox="0 0 16 9" fill="none" xmlns="http://www.w3.org/2000/svg">
<path d="M8.00574 8.9921C8.25807 8.9921 8.51039 8.90035 8.68243 8.70536L15.7247 1.61721C15.8968 1.44515 16 1.21577 16 0.951963C16 0.4129 15.5986 0 15.0595 0C14.8072 0 14.5548 0.114699 14.3828 0.275274L7.46665 7.21433H8.53334L1.61721 0.275274C1.44517 0.114699 1.21577 0 0.951981 0C0.412895 0 0 0.4129 0 0.951963C0 1.21577 0.103232 1.44515 0.27527 1.61721L7.32903 8.70536C7.51253 8.90035 7.74193 8.9921 8.00574 8.9921Z" fill="#D5D5D5"/>
</svg>
