<svg width="64" height="64" viewBox="0 0 64 64" fill="none" xmlns="http://www.w3.org/2000/svg">
<g filter="url(#filter0_dd_1534_7321)">
<circle cx="32" cy="31" r="28" fill="#0068FF"/>
</g>
<path d="M24.7493 38.663H39.2506C41.0943 38.663 42 37.7574 42 35.9461V30.8464C42 30.0054 41.8921 29.5957 41.4824 29.0889L38.7115 25.7143C37.6442 24.4097 37.2129 24 35.6172 24H28.3827C26.7978 24 26.3558 24.4097 25.2884 25.7143L22.5283 29.0889C22.1186 29.5957 22 30.0054 22 30.8464V35.9461C22 37.7574 22.9164 38.663 24.7493 38.663ZM24.7709 37.0997C23.9946 37.0997 23.5526 36.6792 23.5526 35.8706V31.7304H28.6738C28.9218 33.283 30.2587 34.4474 32.0054 34.4474C33.752 34.4474 35.0781 33.2722 35.3261 31.7304H40.4474V35.8706C40.4474 36.6792 40.0054 37.0997 39.2291 37.0997H24.7709ZM32.0054 33.0242C30.841 33.0242 30.1294 31.9892 30.1294 31.0943V31.0727C30.1294 30.6954 29.9029 30.318 29.4178 30.318H24.0162C23.7035 30.318 23.6388 30.0485 23.8005 29.8436L26.7978 26.0916C27.2183 25.5633 27.6927 25.3585 28.2857 25.3585H35.7143C36.3072 25.3585 36.7924 25.5633 37.2129 26.0916L40.2102 29.8436C40.3611 30.0485 40.2965 30.318 39.9946 30.318H34.5822C34.1078 30.318 33.8706 30.6954 33.8706 31.0727V31.0943C33.8706 31.9892 33.1698 33.0242 32.0054 33.0242ZM35.4878 26.5229H28.5121C28.2641 26.5229 28.0701 26.717 28.0701 26.9649C28.0701 27.2129 28.2641 27.407 28.5121 27.407H35.4878C35.7466 27.407 35.9299 27.2129 35.9299 26.9649C35.9299 26.717 35.7466 26.5229 35.4878 26.5229ZM36.5444 28.3881H27.4555C27.1968 28.3881 26.9919 28.6145 26.9919 28.8733C26.9919 29.1213 27.1968 29.3369 27.4555 29.3369H36.5444C36.814 29.3369 37.0081 29.1213 37.0081 28.8733C37.0081 28.6145 36.814 28.3881 36.5444 28.3881Z" fill="white"/>
<defs>
<filter id="filter0_dd_1534_7321" x="0" y="0" width="64" height="64" filterUnits="userSpaceOnUse" color-interpolation-filters="sRGB">
<feFlood flood-opacity="0" result="BackgroundImageFix"/>
<feColorMatrix in="SourceAlpha" type="matrix" values="0 0 0 0 0 0 0 0 0 0 0 0 0 0 0 0 0 0 127 0" result="hardAlpha"/>
<feMorphology radius="1" operator="dilate" in="SourceAlpha" result="effect1_dropShadow_1534_7321"/>
<feOffset dy="1"/>
<feGaussianBlur stdDeviation="1.5"/>
<feColorMatrix type="matrix" values="0 0 0 0 0 0 0 0 0 0 0 0 0 0 0 0 0 0 0.15 0"/>
<feBlend mode="normal" in2="BackgroundImageFix" result="effect1_dropShadow_1534_7321"/>
<feColorMatrix in="SourceAlpha" type="matrix" values="0 0 0 0 0 0 0 0 0 0 0 0 0 0 0 0 0 0 127 0" result="hardAlpha"/>
<feOffset dy="1"/>
<feGaussianBlur stdDeviation="1"/>
<feColorMatrix type="matrix" values="0 0 0 0 0 0 0 0 0 0 0 0 0 0 0 0 0 0 0.3 0"/>
<feBlend mode="normal" in2="effect1_dropShadow_1534_7321" result="effect2_dropShadow_1534_7321"/>
<feBlend mode="normal" in="SourceGraphic" in2="effect2_dropShadow_1534_7321" result="shape"/>
</filter>
</defs>
</svg>
