<svg width="24" height="24" viewBox="0 0 24 24" fill="none" xmlns="http://www.w3.org/2000/svg">
<path d="M4.74932 19.663H19.2506C21.0943 19.663 22 18.7574 22 16.9461V11.8464C22 11.0054 21.8921 10.5957 21.4824 10.0889L18.7115 6.71429C17.6442 5.40971 17.2129 5 15.6172 5H8.38274C6.79782 5 6.35579 5.40971 5.2884 6.71429L2.5283 10.0889C2.11859 10.5957 2 11.0054 2 11.8464V16.9461C2 18.7574 2.91644 19.663 4.74932 19.663ZM4.77089 18.0997C3.9946 18.0997 3.55256 17.6792 3.55256 16.8706V12.7304H8.67383C8.92182 14.283 10.2587 15.4474 12.0054 15.4474C13.752 15.4474 15.0781 14.2722 15.3261 12.7304H20.4474V16.8706C20.4474 17.6792 20.0054 18.0997 19.2291 18.0997H4.77089ZM12.0054 14.0242C10.841 14.0242 10.1294 12.9892 10.1294 12.0943V12.0727C10.1294 11.6954 9.90294 11.318 9.41778 11.318H4.01617C3.70351 11.318 3.63881 11.0485 3.80053 10.8436L6.79782 7.09165C7.21831 6.56334 7.69272 6.35848 8.2857 6.35848H15.7143C16.3072 6.35848 16.7924 6.56334 17.2129 7.09165L20.2102 10.8436C20.3611 11.0485 20.2965 11.318 19.9946 11.318H14.5822C14.1078 11.318 13.8706 11.6954 13.8706 12.0727V12.0943C13.8706 12.9892 13.1698 14.0242 12.0054 14.0242ZM15.4878 7.52291H8.51211C8.26414 7.52291 8.07008 7.71698 8.07008 7.96495C8.07008 8.21294 8.26414 8.407 8.51211 8.407H15.4878C15.7466 8.407 15.9299 8.21294 15.9299 7.96495C15.9299 7.71698 15.7466 7.52291 15.4878 7.52291ZM16.5445 9.38812H7.45552C7.19676 9.38812 6.99189 9.61454 6.99189 9.8733C6.99189 10.1213 7.19676 10.3369 7.45552 10.3369H16.5445C16.814 10.3369 17.0081 10.1213 17.0081 9.8733C17.0081 9.61454 16.814 9.38812 16.5445 9.38812Z" fill="white"/>
</svg>
