<svg width="24" height="25" viewBox="0 0 24 25" fill="none" xmlns="http://www.w3.org/2000/svg">
<path d="M9.7425 19.4933H14.2574V13.9213C14.2574 13.5459 14.0104 13.2989 13.635 13.2989H10.3649C9.98948 13.2989 9.7425 13.5459 9.7425 13.9213V19.4933ZM6.71938 20.4121H17.2213C18.3673 20.4121 19.049 19.7502 19.049 18.6239V10.0485L17.6263 9.10011V18.2584C17.6263 18.7227 17.3596 18.9895 16.915 18.9895H7.01578C6.57119 18.9895 6.31433 18.7227 6.31433 18.2584V9.10011L4.8818 10.0485V18.6239C4.8818 19.7502 5.56348 20.4121 6.71938 20.4121ZM2.57001 11.7873C2.57001 12.1529 2.8565 12.4986 3.3406 12.4986C3.58759 12.4986 3.79506 12.3603 3.97289 12.2121L11.7481 5.6818C11.916 5.54348 12.1136 5.55338 12.2618 5.6818L20.0369 12.2121C20.2246 12.3603 20.4321 12.4986 20.6791 12.4986C21.094 12.4986 21.43 12.2418 21.43 11.817C21.43 11.5502 21.3509 11.3724 21.1632 11.2143L13.0027 4.35796C12.3902 3.84422 11.6295 3.84422 11.017 4.35796L2.84663 11.2143C2.65893 11.3724 2.57001 11.5897 2.57001 11.7873ZM16.9249 8.04301L19.049 9.84107V6.24493C19.049 5.86952 18.802 5.63241 18.4364 5.63241H17.5473C17.1719 5.63241 16.9249 5.86952 16.9249 6.24493V8.04301Z" fill="black"/>
</svg>
