<svg width="24" height="24" viewBox="0 0 24 24" fill="none" xmlns="http://www.w3.org/2000/svg">
<path d="M3 12.7532C3 12.239 3 11.7244 3 11.2098C3.04129 10.9276 3.07461 10.6436 3.12528 10.3628C3.74089 6.9624 6.26902 4.20737 9.60232 3.29622C10.1335 3.15092 10.674 3.06749 11.2188 3C11.734 3 12.2492 3 12.7644 3C13.0187 3.03468 13.2749 3.05999 13.5273 3.10546C15.6308 3.48557 17.4011 4.46657 18.7975 6.08452C20.5083 8.06666 21.2032 10.3811 20.9493 12.9763C20.8306 14.1884 20.4506 15.3268 19.85 16.3884C19.796 16.4836 19.7899 16.568 19.8265 16.6701C19.9569 17.039 20.0803 17.4112 20.2061 17.7819C20.4557 18.5178 20.7096 19.2522 20.9531 19.9904C21.0953 20.4216 20.8968 20.8242 20.4932 20.9489C20.3135 21.0042 20.1362 20.978 19.9602 20.918C18.8918 20.5543 17.8225 20.1924 16.7536 19.8297C16.6368 19.7898 16.5326 19.7584 16.404 19.8297C14.4488 20.9114 12.3604 21.2723 10.1818 20.7905C6.76451 20.0345 4.50618 17.945 3.37819 14.6388C3.16892 14.0285 3.07461 13.392 3 12.7532ZM19.5393 11.5571C19.5473 11.3138 19.4901 10.9201 19.4126 10.5306C18.6056 6.47448 14.72 3.76305 10.5393 4.56874C6.67254 5.31491 4.02852 8.9047 4.48178 12.8423C4.64694 14.2788 5.16589 15.5748 6.08368 16.6894C7.79021 18.7624 10.0087 19.69 12.6808 19.5011C13.8656 19.4172 14.9683 19.0319 15.9766 18.3978C16.2351 18.2351 16.4941 18.2098 16.7794 18.3078C17.487 18.551 18.1974 18.7882 18.9068 19.0268C18.9608 19.045 19.0255 19.0952 19.0701 19.0554C19.118 19.0127 19.0659 18.9471 19.0481 18.8941C18.8111 18.1911 18.5774 17.4866 18.3325 16.7859C18.226 16.4813 18.2584 16.2122 18.4292 15.9362C19.2292 14.6425 19.5924 13.2317 19.5403 11.5566L19.5393 11.5571Z" fill="#242426"/>
<path d="M12.707 10.5867C12.707 11.4575 12.7074 12.3284 12.707 13.1997C12.707 13.6571 12.4231 13.9585 11.9956 13.9594C11.564 13.9604 11.2759 13.6613 11.2759 13.2086C11.2754 11.4374 11.2749 9.66614 11.2763 7.89538C11.2763 7.55182 11.5325 7.25139 11.8553 7.20217C12.2373 7.14452 12.5704 7.3456 12.6816 7.69618C12.7088 7.78243 12.7065 7.86914 12.707 7.95631C12.7074 8.83325 12.707 9.70972 12.707 10.5867Z" fill="#242426"/>
<path d="M11.9994 16.7665C11.5804 16.7683 11.2763 16.4698 11.2754 16.0554C11.2745 15.6383 11.5748 15.3369 11.9909 15.3369C12.4001 15.3369 12.7037 15.6345 12.706 16.0386C12.7088 16.459 12.4118 16.7646 11.9989 16.7665H11.9994Z" fill="#242426"/>
</svg>
