<svg width="24" height="24" viewBox="0 0 24 24" fill="none" xmlns="http://www.w3.org/2000/svg">
<g clip-path="url(#clip0_2986_8016)">
<path d="M22.0001 12.3616C21.8746 12.8319 21.658 13.241 21.2622 13.5313C20.9475 13.7624 20.6022 13.9003 20.2104 13.8999C19.2934 13.899 18.3761 13.8998 17.4592 13.9003C17.2449 13.9003 17.2449 13.9023 17.3196 14.1109C18.0273 16.0925 18.7355 18.0742 19.4428 20.0562C19.5945 20.4811 19.4616 20.8332 19.1018 20.9618C18.8465 21.0535 18.5845 20.9695 18.4265 20.7456C18.3612 20.6527 18.3186 20.5486 18.2803 20.4413C17.528 18.3338 16.7745 16.2272 16.0229 14.1197C15.9788 13.9955 15.9428 13.891 15.775 13.8946C15.6288 13.8978 15.5564 13.9441 15.506 14.088C14.7865 16.1363 14.0616 18.1827 13.337 20.2291C13.2881 20.3669 13.2428 20.5076 13.1786 20.6382C13.023 20.9566 12.72 21.0756 12.4099 20.951C12.1123 20.8316 11.9567 20.5084 12.0658 20.1764C12.2461 19.6257 12.4435 19.0811 12.6367 18.5348C13.1579 17.0592 13.6807 15.584 14.2023 14.1085C14.2747 13.9035 14.2731 13.9007 14.0549 13.9003C13.502 13.8994 12.9491 13.9019 12.3966 13.8982C12.291 13.8974 12.2116 13.9199 12.1506 14.0188C11.7252 14.7074 10.8263 14.9996 9.99885 14.5651C9.47762 14.2914 8.95248 14.0257 8.4289 13.7568C8.2369 13.6583 8.23534 13.6595 8.23495 13.8874C8.23495 15.9932 8.23495 18.0995 8.23495 20.2053C8.23495 20.7677 8.01128 20.9992 7.46894 20.9992C6.30486 20.9992 5.1404 20.9996 3.97633 20.9992C3.47152 20.9992 3.25567 20.7745 3.25528 20.2512C3.25489 19.2615 3.25137 18.2723 3.25841 17.2827C3.25958 17.1079 3.21422 17.017 3.05117 16.9322C2.38682 16.5881 2.02161 16.027 2.00792 15.2536C1.99658 14.592 1.99854 13.93 2.00675 13.268C2.02395 11.9122 2.59133 10.8538 3.67328 10.0885C3.82461 9.98118 3.83869 9.92933 3.70809 9.78221C2.97335 8.95378 2.74539 7.98386 3.07971 6.91948C3.40661 5.87841 4.12648 5.23006 5.16621 4.98768C6.72208 4.62471 8.3069 5.77873 8.51297 7.39901C8.6205 8.24312 8.40622 8.98674 7.89163 9.64273C7.80678 9.75126 7.82789 9.79105 7.93621 9.84532C8.39214 10.074 8.84455 10.3092 9.29931 10.5407C9.49756 10.6416 9.50851 10.6348 9.50851 10.3972C9.50929 8.63905 9.50851 6.88049 9.50929 5.12233C9.50929 4.56562 9.62386 4.0479 10.0063 3.62464C10.3492 3.2448 10.7688 3.00724 11.2744 3.00563C14.2727 2.99799 17.2711 2.9988 20.269 3.00402C20.967 3.00523 21.674 3.55269 21.9008 4.23481C21.9344 4.33571 21.9669 4.4374 22.0001 4.53829V12.3612V12.3616ZM15.7746 4.2316C14.3638 4.2316 12.9526 4.23039 11.5418 4.232C10.9831 4.2328 10.7351 4.49247 10.7348 5.06887C10.7348 6.91385 10.7348 8.75843 10.7348 10.6034C10.7348 11.292 10.7367 11.2879 11.3358 11.5874C11.4648 11.6517 11.5156 11.6171 11.5704 11.497C11.6943 11.2248 11.8296 10.9579 11.9602 10.689C12.2046 10.187 12.4463 9.68373 12.6949 9.1837C12.8412 8.88987 13.102 8.74516 13.3573 8.80063C13.7984 8.8967 13.9904 9.30951 13.7824 9.74282C13.3542 10.6356 12.9182 11.5243 12.4854 12.4146C12.4032 12.5832 12.4508 12.6676 12.6281 12.6679C15.0598 12.6679 17.4916 12.6679 19.9238 12.6679C20.0344 12.6679 20.1435 12.6634 20.2534 12.6409C20.5619 12.5778 20.7344 12.4066 20.7875 12.089C20.8051 11.9845 20.8153 11.8772 20.8153 11.7711C20.8169 9.55872 20.8169 7.34636 20.8153 5.13399C20.8153 5.04074 20.811 4.94668 20.7961 4.85503C20.7344 4.478 20.5725 4.3136 20.201 4.24969C20.1119 4.23441 20.02 4.2316 19.9296 4.2316C18.5446 4.23039 17.1596 4.23079 15.7746 4.23079V4.2316ZM7.0044 16.1122C7.0044 15.0024 7.00323 13.8926 7.00479 12.7828C7.00597 12.1272 7.44157 11.8499 8.01128 12.1417C8.83751 12.5646 9.66257 12.9898 10.4884 13.4139C10.5932 13.4677 10.6976 13.5212 10.8212 13.5132C10.9944 13.5015 11.1426 13.3757 11.1829 13.2008C11.2239 13.0228 11.1434 12.905 11.003 12.8178C10.9529 12.7868 10.8998 12.7611 10.8474 12.7342C9.80021 12.1976 8.74054 11.6843 7.70902 11.1175C6.94849 10.6995 6.15862 10.6135 5.32965 10.7292C4.22306 10.8832 3.31589 11.9001 3.2326 13.0429C3.18177 13.7379 3.20836 14.4324 3.20758 15.127C3.20679 15.5945 3.43906 15.8321 3.8946 15.8823C4.17106 15.9128 4.39003 16.0917 4.44086 16.3498C4.46784 16.486 4.47605 16.6283 4.47644 16.7682C4.47957 17.6706 4.4827 18.5734 4.47449 19.4758C4.47253 19.6723 4.52337 19.7467 4.72631 19.7435C5.40238 19.7322 6.07885 19.7322 6.75532 19.7435C6.9524 19.7467 7.01105 19.6864 7.00949 19.4826C7.00049 18.3596 7.00518 17.2365 7.00518 16.1134L7.0044 16.1122ZM4.16832 7.79896C4.16441 8.70216 4.85456 9.42085 5.72889 9.42326C6.60751 9.42568 7.31175 8.71462 7.31566 7.82147C7.31957 6.90863 6.62589 6.19033 5.74062 6.18993C4.85808 6.18953 4.17262 6.89134 4.16871 7.79896H4.16832Z" fill="#242426"/>
<path d="M15.773 5.56912C16.8123 5.56912 17.852 5.56711 18.8914 5.57032C19.1893 5.57113 19.406 5.74276 19.4885 6.02212C19.5616 6.26892 19.4728 6.53663 19.2644 6.69781C19.1334 6.7991 18.9794 6.82804 18.8226 6.82845C16.7889 6.83046 14.7555 6.83166 12.7218 6.82764C12.3422 6.82684 12.0727 6.59812 12.0383 6.27817C11.9949 5.8734 12.26 5.57153 12.6733 5.57032C13.7064 5.56671 14.7395 5.56912 15.7726 5.56952L15.773 5.56912Z" fill="#242426"/>
<path d="M17.3255 11.3317C16.825 11.3317 16.3241 11.3337 15.8236 11.3309C15.4494 11.3289 15.1796 11.0841 15.162 10.7368C15.1452 10.4008 15.3821 10.1323 15.7438 10.0796C15.795 10.072 15.8474 10.0708 15.8994 10.0708C16.8617 10.0704 17.8241 10.07 18.7864 10.0708C18.9306 10.0708 19.073 10.0881 19.2012 10.1612C19.4355 10.2947 19.5606 10.5849 19.4988 10.8437C19.4304 11.1311 19.202 11.3257 18.9052 11.3289C18.3785 11.3345 17.8518 11.3305 17.3251 11.3305V11.3313L17.3255 11.3317Z" fill="#242426"/>
<path d="M17.3241 9.08172C16.817 9.08172 16.3098 9.08976 15.8031 9.07931C15.3405 9.07007 15.0453 8.64198 15.2075 8.22596C15.31 7.96388 15.5141 7.8236 15.7835 7.82199C16.817 7.81516 17.8505 7.81395 18.8839 7.82199C19.248 7.82481 19.5131 8.10497 19.5135 8.45065C19.5135 8.79593 19.248 9.07288 18.8839 9.07931C18.3643 9.08896 17.8438 9.08172 17.3238 9.08213L17.3241 9.08172Z" fill="#242426"/>
</g>
<defs>
<clipPath id="clip0_2986_8016">
<rect width="20" height="18" fill="white" transform="translate(2 3)"/>
</clipPath>
</defs>
</svg>
