<svg width="24" height="24" viewBox="0 0 24 24" fill="none" xmlns="http://www.w3.org/2000/svg">
<path d="M6 12.0004C6 12.2051 6.08274 12.3794 6.23223 12.5332L13.4585 19.5012C13.5928 19.6435 13.7751 19.7147 13.9806 19.7147C14.3887 19.7147 14.7045 19.4061 14.7045 18.9908C14.7045 18.7889 14.6254 18.6146 14.4947 18.4759L7.78403 12.0004L14.4947 5.52493C14.6254 5.38623 14.7045 5.20394 14.7045 5.01006C14.7045 4.59473 14.3887 4.28613 13.9806 4.28613C13.7751 4.28613 13.5928 4.35728 13.4585 4.49959L6.23223 11.4676C6.08274 11.6215 6 11.7958 6 12.0004Z" fill="black"/>
</svg>
