<svg width="24" height="24" viewBox="0 0 24 24" fill="none" xmlns="http://www.w3.org/2000/svg">
<path d="M3.80922 10.2319C2.50067 10.8388 2.86099 12.5929 4.3023 12.6024L11.2148 12.6309C11.3287 12.6309 11.3571 12.6594 11.3571 12.7731L11.376 19.6288C11.3856 21.127 13.1682 21.3925 13.8035 20.0175L20.8109 4.95029C21.4557 3.54691 20.3557 2.55128 18.9618 3.20555L3.80922 10.2319ZM5.45912 11.1232C5.4212 11.1232 5.41171 11.0853 5.45912 11.0663L19.0851 4.82701C19.1515 4.79857 19.1799 4.81753 19.1515 4.89339L12.8742 18.5099C12.8648 18.5478 12.8268 18.5383 12.8268 18.5004L12.8742 11.7965C12.8742 11.3792 12.5803 11.0853 12.1536 11.0853L5.45912 11.1232Z" fill="black" fill-opacity="0.85"/>
</svg>
