<svg width="94" height="21" viewBox="0 0 94 21" fill="none" xmlns="http://www.w3.org/2000/svg">
<path d="M27.3217 1.7998H21.2649V19.7401H27.3217C33.367 19.7401 37.1288 16.312 37.1288 10.7901C37.1288 5.26823 33.3728 1.7998 27.3217 1.7998ZM27.385 17.842H23.2205V3.6922H27.385C32.3317 3.6922 35.1673 6.28057 35.1673 10.7901C35.1673 15.2996 32.3317 17.842 27.385 17.842Z" fill="#005C97"/>
<path d="M48.0518 1.4375C42.7083 1.4375 38.8257 5.36033 38.8257 10.7729C38.8257 16.1855 42.714 20.1083 48.0749 20.1083C53.4357 20.1083 57.3239 16.1855 57.3239 10.7729C57.3239 5.36033 53.4242 1.4375 48.0518 1.4375ZM48.0518 3.33565C52.2853 3.33565 55.3625 6.46471 55.3625 10.7729C55.3625 15.0811 52.2968 18.2102 48.0749 18.2102C43.8529 18.2102 40.787 15.0811 40.787 10.7729C40.787 6.46471 43.8414 3.33565 48.0518 3.33565Z" fill="#005C97"/>
<path d="M73.4523 7.51724C73.4523 3.99129 70.6627 1.7998 66.1762 1.7998H59.7283V19.7401H61.6896V13.2347H66.1762C66.6939 13.2347 67.1942 13.2059 67.6543 13.1484L72.0086 19.7401H74.3497L69.6619 12.6882C72.0777 11.8197 73.4466 9.97332 73.4466 7.51724H73.4523ZM61.6896 11.3423V3.69795H66.0036C68.057 3.69795 71.4967 4.19261 71.4967 7.52299C71.4967 10.8534 68.057 11.348 66.0036 11.348H61.6896V11.3423Z" fill="#005C97"/>
<path d="M84.076 1.4375C78.7267 1.4375 74.8499 5.36033 74.8499 10.7729C74.8499 16.1855 78.7382 20.1083 84.099 20.1083C89.4599 20.1083 93.3482 16.1855 93.3482 10.7729C93.3482 5.36033 89.3621 1.4375 84.0818 1.4375H84.076ZM91.3867 10.7729C91.3867 15.0811 88.321 18.2102 84.099 18.2102C79.8771 18.2102 76.8114 15.0811 76.8114 10.7729C76.8114 6.46471 79.8656 3.33565 84.0818 3.33565C88.2979 3.33565 91.3925 6.46471 91.3925 10.7729H91.3867Z" fill="#005C97"/>
<path d="M16.5829 10.1165C3.7043 12.8199 0 20.7691 0 20.7691V0.769531H8.2541C12.8557 0.769531 16.5829 4.9512 16.5829 10.1165Z" fill="#0072B9"/>
<path d="M16.5542 10.1338C16.0538 10.4674 9.32407 15.0287 8.10465 20.7691H6.33301C6.33301 20.7691 8.61654 14.2694 16.5542 10.1338Z" fill="#99C7E3"/>
<path d="M16.5829 10.1172V11.4286C16.5829 16.5881 12.8556 20.7698 8.25405 20.7698H8.10449C9.32391 15.0294 16.0537 10.4681 16.5541 10.1344C16.5656 10.1287 16.5714 10.1229 16.5829 10.1172Z" fill="#0072B9"/>
</svg>
