<svg width="31" height="30" viewBox="0 0 31 30" fill="none" xmlns="http://www.w3.org/2000/svg">
<path d="M13.0531 24.1264H18.6967V17.1614C18.6967 16.6921 18.388 16.3834 17.9187 16.3834H13.8311C13.3618 16.3834 13.0531 16.6921 13.0531 17.1614V24.1264ZM9.27418 25.2749H22.4015C23.8341 25.2749 24.6862 24.4475 24.6862 23.0397V12.3204L22.9079 11.1349V22.5827C22.9079 23.1632 22.5744 23.4966 22.0187 23.4966H9.64467C9.08894 23.4966 8.76787 23.1632 8.76787 22.5827V11.1349L6.97721 12.3204V23.0397C6.97721 24.4475 7.8293 25.2749 9.27418 25.2749ZM4.08746 14.4939C4.08746 14.9509 4.44559 15.3831 5.05071 15.3831C5.35944 15.3831 5.61878 15.2102 5.84107 15.0249L15.56 6.86201C15.7699 6.68912 16.0169 6.70149 16.2022 6.86201L25.9211 15.0249C26.1557 15.2102 26.4151 15.3831 26.7238 15.3831C27.2424 15.3831 27.6625 15.062 27.6625 14.531C27.6625 14.1975 27.5636 13.9752 27.3289 13.7777L17.1284 5.20722C16.3627 4.56504 15.4118 4.56504 14.6462 5.20722L4.43324 13.7777C4.19861 13.9752 4.08746 14.2469 4.08746 14.4939ZM22.0311 9.81352L24.6862 12.0611V7.56592C24.6862 7.09667 24.3774 6.80028 23.9205 6.80028H22.8091C22.3398 6.80028 22.0311 7.09667 22.0311 7.56592V9.81352Z" fill="#AEAEB2"/>
</svg>
