<svg width="31" height="30" viewBox="0 0 31 30" fill="none" xmlns="http://www.w3.org/2000/svg">
<path d="M18.3879 23.4966H13.3494V17.186C13.3494 16.7044 13.6705 16.4081 14.1398 16.4081H17.6099C18.0915 16.4081 18.3879 16.7044 18.3879 17.186V23.4966ZM7.26119 23.0396C7.26119 24.4475 8.11329 25.2749 9.54582 25.2749H22.2162C23.6488 25.2749 24.5008 24.4475 24.5008 23.0396V15.7535L16.4491 9.01079C16.1033 8.70206 15.6464 8.71443 15.3129 9.01079L7.26119 15.7535V23.0396ZM4.0874 14.4939C4.0874 14.9508 4.44552 15.383 5.05065 15.383C5.35938 15.383 5.61872 15.2102 5.841 15.0249L15.5599 6.86201C15.7699 6.68912 16.0169 6.70148 16.2021 6.86201L25.921 15.0249C26.1557 15.2102 26.415 15.383 26.7237 15.383C27.2423 15.383 27.6624 15.062 27.6624 14.531C27.6624 14.1975 27.5635 13.9752 27.3288 13.7776L17.1283 5.20722C16.3626 4.56504 15.4117 4.56504 14.6461 5.20722L4.43318 13.7776C4.19855 13.9752 4.0874 14.2469 4.0874 14.4939ZM21.8334 9.81352L24.5008 12.0611V7.56592C24.5008 7.09666 24.1921 6.80027 23.7352 6.80027H22.6237C22.1545 6.80027 21.8334 7.09666 21.8334 7.56592V9.81352Z" fill="#0068FF"/>
</svg>
