<svg width="31" height="30" viewBox="0 0 31 30" fill="none" xmlns="http://www.w3.org/2000/svg">
<path d="M5.625 15.5345C5.625 17.9458 6.96585 19.2528 9.4898 19.2528H12.4757C15.5067 19.6247 18.5602 20.6387 21.5011 22.3063V20.5261C18.6616 18.9148 15.687 17.9796 12.4081 17.6303H9.4898C7.87851 17.6303 7.24754 17.0444 7.24754 15.5345V14.3289C7.24754 12.8078 7.87851 12.2331 9.4898 12.2331H12.3067C15.6644 11.8951 18.718 10.9148 21.5011 9.33732V7.55705C18.6954 9.21338 15.225 10.3063 12.5321 10.6106H9.4898C6.96585 10.6106 5.625 11.9063 5.625 14.3289V15.5345ZM13.9968 19.1289H12.4532L13.1856 22.8472C13.2532 23.174 13.0841 23.388 12.8363 23.4782C12.5884 23.5571 12.2616 23.4782 12.1039 23.1402L10.1321 18.9486H8.4757L10.5039 23.4444C11.2588 25.1345 12.5884 25.2247 13.456 24.9542C14.3574 24.6613 14.9095 23.8162 14.6729 22.6218L13.9968 19.1289ZM11.1236 11.3655V18.4979H12.7574V11.3655H11.1236ZM20.9264 21.1909C20.9264 22.5993 21.8842 23.5345 23.2813 23.5345C24.6898 23.5345 25.625 22.5993 25.625 21.1909V8.60494C25.625 7.1852 24.6898 6.25 23.2813 6.25C21.8842 6.25 20.9264 7.1852 20.9264 8.60494V21.1909ZM22.5715 21.1909V8.60494C22.5715 8.1655 22.8419 7.87255 23.2813 7.87255C23.7208 7.87255 24.0025 8.1655 24.0025 8.60494V21.1909C24.0025 21.6303 23.7208 21.912 23.2813 21.912C22.8419 21.912 22.5715 21.6303 22.5715 21.1909Z" fill="#AEAEB2"/>
</svg>
