<svg width="24" height="25" viewBox="0 0 24 25" fill="none" xmlns="http://www.w3.org/2000/svg">
<path d="M4 13.1971C4 15.1262 5.07268 16.1718 7.09184 16.1718H9.48056C11.9054 16.4693 14.3482 17.2805 16.7009 18.6146V17.1904C14.4293 15.9014 12.0496 15.1532 9.42649 14.8738H7.09184C5.80281 14.8738 5.29803 14.405 5.29803 13.1971V12.2326C5.29803 11.0157 5.80281 10.556 7.09184 10.556H9.34535C12.0316 10.2856 14.4744 9.50137 16.7009 8.23939V6.81517C14.4563 8.14024 11.68 9.0146 9.52564 9.25799H7.09184C5.07268 9.25799 4 10.2946 4 12.2326V13.1971ZM10.6975 16.0726H9.46254L10.0485 19.0473C10.1025 19.3087 9.96732 19.48 9.76901 19.5521C9.57071 19.6152 9.3093 19.5521 9.1831 19.2817L7.60564 15.9284H6.28056L7.9031 19.525C8.50705 20.8771 9.57071 20.9493 10.2648 20.7329C10.9859 20.4986 11.4276 19.8225 11.2383 18.867L10.6975 16.0726ZM8.39889 9.86193V15.5679H9.70591V9.86193H8.39889ZM16.2411 17.7222C16.2411 18.849 17.0073 19.5971 18.1251 19.5971C19.2518 19.5971 20 18.849 20 17.7222V7.65348C20 6.51769 19.2518 5.76953 18.1251 5.76953C17.0073 5.76953 16.2411 6.51769 16.2411 7.65348V17.7222ZM17.5572 17.7222V7.65348C17.5572 7.30193 17.7735 7.06757 18.1251 7.06757C18.4766 7.06757 18.702 7.30193 18.702 7.65348V17.7222C18.702 18.0738 18.4766 18.2991 18.1251 18.2991C17.7735 18.2991 17.5572 18.0738 17.5572 17.7222Z" fill="#242426"/>
</svg>
