<svg width="31" height="30" viewBox="0 0 31 30" fill="none" xmlns="http://www.w3.org/2000/svg">
<path d="M9.4898 18.0028H11.2025V9.36055H9.4898C6.97711 9.36055 5.625 10.6676 5.625 13.0789V14.2845C5.625 16.6958 6.97711 18.0028 9.4898 18.0028ZM12.5208 18.0141C14.9771 18.2958 18.0644 19.0282 20.5546 20.1775C20.5546 20.0873 20.5546 19.9859 20.5546 19.8958V7.51266C20.5546 7.39998 20.5546 7.29858 20.5546 7.1859C18.0306 8.35773 14.7067 9.11266 12.5208 9.36055V18.0141ZM23.7546 22.2958C24.8701 22.2958 25.625 21.5296 25.625 20.4141V6.88169C25.625 5.76619 24.8701 5 23.7546 5C22.6391 5 21.8729 5.76619 21.8729 6.88169V20.4141C21.8729 21.5296 22.6391 22.2958 23.7546 22.2958ZM12.9264 24.0197C14.0532 24.0197 14.8757 23.2535 14.5828 21.8789L14.1095 19.6254C13.3771 19.4901 12.2729 19.4 9.78275 19.3324C9.68135 19.3324 9.55739 19.3211 9.42218 19.3211L10.8644 22.4423C11.3039 23.4113 11.8673 24.0197 12.9264 24.0197Z" fill="#0068FF"/>
</svg>
