<svg width="20" height="20" viewBox="0 0 20 20" fill="none" xmlns="http://www.w3.org/2000/svg">
<path d="M8.09541 18.0911C8.56848 18.0911 8.94452 17.8848 9.21138 17.4724L18.0542 3.48649C18.2604 3.17112 18.3332 2.91639 18.3332 2.66165C18.3332 2.06728 17.945 1.66699 17.3385 1.66699C16.9018 1.66699 16.6592 1.81257 16.3924 2.2371L8.0469 15.6287L3.65582 9.70922C3.37684 9.33318 3.10999 9.17548 2.70968 9.17548C2.10318 9.17548 1.6665 9.60003 1.6665 10.2065C1.6665 10.4613 1.77568 10.7402 1.9819 11.0071L6.94308 17.4482C7.2827 17.8848 7.62234 18.0911 8.09541 18.0911Z" fill="black"/>
</svg>
