<svg width="24" height="24" viewBox="0 0 24 24" fill="none" xmlns="http://www.w3.org/2000/svg">
<path d="M3.32772 20.6615C3.78614 21.1056 4.53104 21.1056 4.97514 20.6615L11.9946 13.6277L19.0284 20.6615C19.4582 21.1056 20.2174 21.1056 20.6615 20.6615C21.1056 20.2031 21.1056 19.4582 20.6615 19.0284L13.6277 11.9946L20.6615 4.97513C21.1056 4.53107 21.12 3.77181 20.6615 3.32772C20.2031 2.89796 19.4582 2.89796 19.0284 3.32772L11.9946 10.3615L4.97514 3.32772C4.53104 2.89796 3.77179 2.88362 3.32772 3.32772C2.89795 3.78613 2.89795 4.53107 3.32772 4.97513L10.3615 11.9946L3.32772 19.0284C2.89795 19.4582 2.88363 20.2174 3.32772 20.6615Z" fill="black"/>
</svg>
