<svg width="17" height="17" viewBox="0 0 17 17" fill="none" xmlns="http://www.w3.org/2000/svg">
<g clip-path="url(#clip0_1849_8701)">
<path d="M2.35689 8.4813C2.36195 8.80038 2.62532 9.06375 2.93934 9.06375L7.90796 9.05869L7.90796 14.0324C7.90289 14.3413 8.17133 14.6098 8.48535 14.6098C8.80444 14.6047 9.06781 14.3413 9.06275 14.0324L9.06275 9.05869L14.0314 9.06375C14.3454 9.06376 14.6189 8.80038 14.6138 8.48129C14.6037 8.16728 14.3403 7.9039 14.0364 7.9039L9.06275 7.9039L9.06781 2.93528C9.06274 2.62633 8.79937 2.35282 8.48535 2.35283C8.17133 2.36295 7.90795 2.62633 7.9029 2.93528L7.90796 7.9039L2.93428 7.9039C2.63038 7.9039 2.35688 8.16727 2.35689 8.4813Z" fill="black"/>
</g>
<defs>
<clipPath id="clip0_1849_8701">
<rect width="12.0001" height="12.0001" fill="white" transform="translate(8.48535) rotate(45)"/>
</clipPath>
</defs>
</svg>
