<svg width="31" height="30" viewBox="0 0 31 30" fill="none" xmlns="http://www.w3.org/2000/svg">
<path d="M15.1177 26.7707C21.5542 26.7707 26.9107 21.4288 26.9107 14.9923C26.9107 8.55575 21.5396 3.21387 15.1031 3.21387C8.68117 3.21387 3.33929 8.55575 3.33929 14.9923C3.33929 21.4288 8.69578 26.7707 15.1177 26.7707ZM15.1177 24.5522C9.8196 24.5522 5.58698 20.305 5.58698 14.9923C5.58698 9.6796 9.80501 5.43236 15.1031 5.43236C20.4158 5.43236 24.6776 9.6796 24.6776 14.9923C24.6776 20.305 20.4304 24.5522 15.1177 24.5522ZM22.9846 22.5818L22.9408 22.4359C22.4154 20.7282 19.3649 18.9184 15.1177 18.9184C10.8705 18.9184 7.83465 20.7282 7.30922 22.4359L7.26543 22.5818C9.35255 24.6106 13.0598 25.7636 15.1177 25.7636C17.1902 25.7636 20.8975 24.6106 22.9846 22.5818ZM15.1177 16.9918C17.3216 17.021 19.0584 15.1382 19.0584 12.6716C19.0584 10.351 17.3216 8.439 15.1177 8.439C12.9284 8.439 11.177 10.351 11.1916 12.6716C11.2062 15.1382 12.9138 16.9626 15.1177 16.9918Z" fill="#AEAEB2"/>
</svg>
