<svg width="31" height="30" viewBox="0 0 31 30" fill="none" xmlns="http://www.w3.org/2000/svg">
<path d="M15.1176 26.7707C21.5542 26.7707 26.9107 21.4288 26.9107 14.9923C26.9107 8.55575 21.5396 3.21387 15.103 3.21387C8.6811 3.21387 3.33923 8.55575 3.33923 14.9923C3.33923 21.4288 8.69572 26.7707 15.1176 26.7707ZM15.1176 24.5522C9.81954 24.5522 5.58692 20.305 5.58692 14.9923C5.58692 9.6796 9.80495 5.43236 15.103 5.43236C20.4157 5.43236 24.6776 9.6796 24.6776 14.9923C24.6776 20.305 20.4303 24.5522 15.1176 24.5522ZM22.9845 22.5818L22.9407 22.4359C22.4153 20.7282 19.3649 18.9184 15.1176 18.9184C10.8704 18.9184 7.83459 20.7282 7.30916 22.4359L7.26537 22.5818C9.35249 24.6106 13.0597 25.7636 15.1176 25.7636C17.1902 25.7636 20.8974 24.6106 22.9845 22.5818ZM15.1176 16.9918C17.3215 17.021 19.0584 15.1382 19.0584 12.6716C19.0584 10.351 17.3215 8.439 15.1176 8.439C12.9283 8.439 11.1769 10.351 11.1915 12.6716C11.2061 15.1382 12.9138 16.9626 15.1176 16.9918Z" fill="#0068FF"/>
</svg>
