<svg width="24" height="25" viewBox="0 0 24 25" fill="none" xmlns="http://www.w3.org/2000/svg">
<path d="M16.8085 12.7699C16.8085 12.5653 16.7304 12.391 16.5659 12.2371L9.01603 5.26912C8.87569 5.12682 8.68985 5.05566 8.47893 5.05566C8.04878 5.05566 7.71423 5.36427 7.71423 5.77959C7.71423 5.97347 7.80528 6.15576 7.9335 6.29446L14.953 12.7699L7.9335 19.2454C7.80528 19.3841 7.71423 19.5584 7.71423 19.7603C7.71423 20.1756 8.04878 20.4842 8.47893 20.4842C8.68985 20.4842 8.87569 20.4131 9.01603 20.2708L16.5659 13.3028C16.7304 13.1489 16.8085 12.9746 16.8085 12.7699Z" fill="black"/>
</svg>
