<svg width="24" height="24" viewBox="0 0 24 24" fill="none" xmlns="http://www.w3.org/2000/svg">
<path d="M16.8086 12.0004C16.8086 11.7958 16.7306 11.6215 16.566 11.4676L9.01616 4.49959C8.87581 4.35728 8.68997 4.28613 8.47906 4.28613C8.0489 4.28613 7.71436 4.59473 7.71436 5.01006C7.71436 5.20394 7.80541 5.38623 7.93362 5.52493L14.9531 12.0004L7.93362 18.4759C7.80541 18.6146 7.71436 18.7889 7.71436 18.9908C7.71436 19.4061 8.0489 19.7147 8.47906 19.7147C8.68997 19.7147 8.87581 19.6435 9.01616 19.5012L16.566 12.5332C16.7306 12.3794 16.8086 12.2051 16.8086 12.0004Z" fill="#D5D5D5"/>
</svg>
