<svg width="24" height="24" viewBox="0 0 24 24" fill="none" xmlns="http://www.w3.org/2000/svg">
<path d="M2.57129 10.3389C2.57129 14.6257 6.05205 18.0942 10.3389 18.0942C11.9876 18.0942 13.5021 17.5813 14.76 16.7019L19.3033 21.2574C19.5598 21.5017 19.8774 21.6116 20.2071 21.6116C20.9155 21.6116 21.4284 21.0742 21.4284 20.3659C21.4284 20.0239 21.2941 19.7186 21.0865 19.4865L16.5676 14.9554C17.5324 13.6608 18.0942 12.0731 18.0942 10.3389C18.0942 6.05204 14.6257 2.57129 10.3389 2.57129C6.05205 2.57129 2.57129 6.05204 2.57129 10.3389ZM4.45212 10.3389C4.45212 7.07795 7.07794 4.45211 10.3389 4.45211C13.5876 4.45211 16.2256 7.07795 16.2256 10.3389C16.2256 13.5876 13.5876 16.2256 10.3389 16.2256C7.07794 16.2256 4.45212 13.5876 4.45212 10.3389Z" fill="#D5D5D5"/>
</svg>
