<svg width="10" height="10" viewBox="0 0 10 10" fill="none" xmlns="http://www.w3.org/2000/svg">
<path d="M5.00241 7.07971C5.10755 7.07971 5.21268 7.04149 5.28437 6.96024L8.21866 4.00685C8.29034 3.93515 8.33335 3.83958 8.33335 3.72966C8.33335 3.50505 8.16609 3.33301 7.94148 3.33301C7.83633 3.33301 7.7312 3.3808 7.65952 3.44771L4.77779 6.33898H5.22225L2.34052 3.44771C2.26884 3.3808 2.17326 3.33301 2.06335 3.33301C1.83873 3.33301 1.66669 3.50505 1.66669 3.72966C1.66669 3.83958 1.7097 3.93515 1.78138 4.00685L4.72045 6.96024C4.79691 7.04149 4.89249 7.07971 5.00241 7.07971Z" fill="#7C7C80"/>
</svg>
