<svg width="10" height="10" viewBox="0 0 10 10" fill="none" xmlns="http://www.w3.org/2000/svg">
<path d="M7.08002 4.99728C7.08002 4.89215 7.04179 4.78701 6.96055 4.71533L4.00715 1.78104C3.93546 1.70936 3.83989 1.66634 3.72996 1.66634C3.50535 1.66634 3.33331 1.83361 3.33331 2.05822C3.33331 2.16336 3.3811 2.2685 3.44801 2.34018L6.33929 5.2219L6.33929 4.77745L3.44801 7.65917C3.3811 7.73085 3.33331 7.82644 3.33331 7.93635C3.33331 8.16097 3.50535 8.33301 3.72996 8.33301C3.83989 8.33301 3.93546 8.28999 4.00715 8.21831L6.96055 5.27925C7.04179 5.20279 7.08002 5.1072 7.08002 4.99728Z" fill="#7C7C80"/>
</svg>
