<svg width="10" height="10" viewBox="0 0 10 10" fill="none" xmlns="http://www.w3.org/2000/svg">
<path d="M4.99759 2.92029C4.89245 2.92029 4.78732 2.95852 4.71563 3.03976L1.78134 5.99315C1.70966 6.06485 1.66665 6.16042 1.66665 6.27034C1.66665 6.49495 1.83391 6.66699 2.05852 6.66699C2.16367 6.66699 2.2688 6.6192 2.34048 6.5523L5.22221 3.66102L4.77775 3.66102L7.65948 6.55229C7.73116 6.6192 7.82674 6.66699 7.93665 6.66699C8.16127 6.66699 8.33331 6.49495 8.33331 6.27034C8.33331 6.16042 8.2903 6.06485 8.21862 5.99315L5.27955 3.03976C5.20309 2.95851 5.10751 2.92029 4.99759 2.92029Z" fill="#7C7C80"/>
</svg>
