<svg width="100" height="107" viewBox="0 0 100 107" fill="none" xmlns="http://www.w3.org/2000/svg">
<path d="M8.40615 81.7268H0V106.18H8.40615C16.792 106.18 22.0102 101.501 22.0102 93.9784C22.0102 86.4558 16.8021 81.7168 8.40615 81.7168V81.7268ZM8.49761 103.596H2.72075V84.3108H8.49761C15.3606 84.3108 19.2894 87.8327 19.2894 93.9884C19.2894 100.144 15.3606 103.606 8.49761 103.606V103.596Z" fill="#005C97"/>
<path d="M37.1684 81.2266C29.7572 81.2266 24.3662 86.5742 24.3662 93.9472C24.3662 101.32 29.7572 106.668 37.1989 106.668C44.6405 106.668 50.0313 101.32 50.0313 93.9472C50.0313 86.5742 44.6202 81.2266 37.1684 81.2266ZM37.1684 83.8106C43.0466 83.8106 47.3105 88.0707 47.3105 93.9472C47.3105 99.8236 43.0568 104.084 37.1989 104.084C31.341 104.084 27.087 99.8236 27.087 93.9472C27.087 88.0707 31.3308 83.8106 37.1684 83.8106Z" fill="#005C97"/>
<path d="M72.3964 89.5254C72.3964 84.7165 68.5285 81.7334 62.3051 81.7334H53.3608V106.187H56.0816V97.3174H62.3051C63.0259 97.3174 63.7163 97.2775 64.3559 97.1977L70.3965 106.187H73.6451L67.1376 96.5691C70.4879 95.3918 72.3964 92.8677 72.3964 89.5254ZM56.0816 94.7334V84.3075H62.0614C64.9041 84.3075 69.6757 84.9859 69.6757 89.5154C69.6757 94.0449 64.9041 94.7234 62.0614 94.7234H56.0816V94.7334Z" fill="#005C97"/>
<path d="M87.1371 81.2266C79.7158 81.2266 74.335 86.5742 74.335 93.9472C74.335 101.32 79.726 106.668 87.1676 106.668C94.6093 106.668 100 101.32 100 93.9472C100 86.5742 94.4773 81.2266 87.1473 81.2266H87.1371ZM97.2793 93.9472C97.2793 99.8236 93.0255 104.084 87.1676 104.084C81.3097 104.084 77.056 99.8236 77.056 93.9472C77.056 88.0707 81.2996 83.8106 87.1371 83.8106C92.9747 83.8106 97.2793 88.0707 97.2793 93.9472Z" fill="#005C97"/>
<path d="M83.4899 33.9815C35.835 43.8187 22.1294 72.7219 22.1294 72.7219V0H52.6674C69.703 0 83.4899 15.2049 83.4899 33.9815Z" fill="#0072B9"/>
<path d="M83.3871 34.0518C81.5292 35.259 56.6258 51.8506 52.108 72.7323H45.5596C45.5596 72.7323 54.0063 49.087 83.3871 34.0518Z" fill="#99C7E3"/>
<path d="M83.4891 33.9824V38.7614C83.4891 57.518 69.7022 72.7229 52.6666 72.7229H52.1084C56.6262 51.8412 81.5195 35.2595 83.3875 34.0423C83.4281 34.0223 83.4485 34.0024 83.4993 33.9824H83.4891Z" fill="#0072B9"/>
</svg>
