<svg width="31" height="30" viewBox="0 0 31 30" fill="none" xmlns="http://www.w3.org/2000/svg">
<path d="M6.31165 24.5788H24.4383C26.7429 24.5788 27.875 23.4467 27.875 21.1826V14.8079C27.875 13.7567 27.7402 13.2446 27.228 12.6112L23.7644 8.39286C22.4302 6.76214 21.8911 6.25 19.8965 6.25H10.8534C8.87228 6.25 8.31974 6.76214 6.9855 8.39286L3.53538 12.6112C3.02324 13.2446 2.875 13.7567 2.875 14.8079V21.1826C2.875 23.4467 4.02055 24.5788 6.31165 24.5788ZM6.33862 22.6246C5.36825 22.6246 4.8157 22.099 4.8157 21.0882V15.9131H11.2173C11.5273 17.8537 13.1984 19.3093 15.3817 19.3093C17.565 19.3093 19.2227 17.8403 19.5326 15.9131H25.9342V21.0882C25.9342 22.099 25.3817 22.6246 24.4113 22.6246H6.33862ZM15.3817 17.5303C13.9262 17.5303 13.0367 16.2365 13.0367 15.1179V15.0909C13.0367 14.6193 12.7537 14.1476 12.1472 14.1476H5.39522C5.00438 14.1476 4.92351 13.8106 5.12566 13.5546L8.87228 8.86456C9.39789 8.20418 9.99089 7.9481 10.7321 7.9481H20.0178C20.759 7.9481 21.3655 8.20418 21.8911 8.86456L25.6377 13.5546C25.8264 13.8106 25.7456 14.1476 25.3682 14.1476H18.6027C18.0097 14.1476 17.7132 14.6193 17.7132 15.0909V15.1179C17.7132 16.2365 16.8372 17.5303 15.3817 17.5303ZM19.7348 9.40364H11.0151C10.7052 9.40364 10.4626 9.64622 10.4626 9.95618C10.4626 10.2662 10.7052 10.5088 11.0151 10.5088H19.7348C20.0583 10.5088 20.2874 10.2662 20.2874 9.95618C20.2874 9.64622 20.0583 9.40364 19.7348 9.40364ZM21.0556 11.7351H9.6944C9.37095 11.7351 9.11487 12.0182 9.11487 12.3416C9.11487 12.6516 9.37095 12.9211 9.6944 12.9211H21.0556C21.3925 12.9211 21.6351 12.6516 21.6351 12.3416C21.6351 12.0182 21.3925 11.7351 21.0556 11.7351Z" fill="#0068FF"/>
</svg>
