<svg width="31" height="30" viewBox="0 0 31 30" fill="none" xmlns="http://www.w3.org/2000/svg">
<path d="M6.30677 24.5788H24.4334C26.738 24.5788 27.8701 23.4467 27.8701 21.1826V15.3201C27.8701 14.2688 27.7083 13.7837 27.2231 13.1233L23.7596 8.39286C22.5332 6.70823 21.8862 6.25 19.8916 6.25H10.8485C8.8674 6.25 8.20704 6.70823 6.98062 8.39286L3.53049 13.1233C3.04532 13.7837 2.87012 14.2688 2.87012 15.3201V21.1826C2.87012 23.4467 4.01566 24.5788 6.30677 24.5788ZM15.3768 18.2985C13.8 18.2985 12.8566 16.9103 12.8566 15.7109V15.6705C12.8566 15.1583 12.5466 14.6597 11.8863 14.6597H5.41727C5.02644 14.6597 4.9456 14.3362 5.13428 14.0667L8.8674 8.86456C9.3526 8.17721 9.98601 7.9481 10.7272 7.9481H20.0129C20.7542 7.9481 21.4011 8.17721 21.8862 8.86456L25.6059 14.0667C25.7811 14.3362 25.7137 14.6597 25.3229 14.6597H18.8539C18.207 14.6597 17.897 15.1583 17.897 15.6705V15.7109C17.897 16.9103 16.9402 18.2985 15.3768 18.2985ZM19.7299 9.40364H11.0103C10.7003 9.40364 10.4577 9.64622 10.4577 9.95618C10.4577 10.2662 10.7003 10.5088 11.0103 10.5088H19.7299C20.0534 10.5088 20.2825 10.2662 20.2825 9.95618C20.2825 9.64622 20.0534 9.40364 19.7299 9.40364ZM21.0507 11.7352H9.68952C9.36606 11.7352 9.10998 12.0182 9.10998 12.3416C9.10998 12.6516 9.36606 12.9211 9.68952 12.9211H21.0507C21.3876 12.9211 21.6302 12.6516 21.6302 12.3416C21.6302 12.0182 21.3876 11.7352 21.0507 11.7352Z" fill="#0068FF"/>
</svg>
