<svg width="24" height="25" viewBox="0 0 24 25" fill="none" xmlns="http://www.w3.org/2000/svg">
<path d="M11.9943 7.88486C11.7419 7.88486 11.4896 7.97661 11.3176 8.1716L4.27527 15.2597C4.10324 15.4318 4 15.6612 4 15.925C4 16.4641 4.40144 16.877 4.9405 16.877C5.19285 16.877 5.44517 16.7623 5.61721 16.6017L12.5333 9.66262L11.4667 9.66262L18.3828 16.6017C18.5548 16.7623 18.7842 16.877 19.048 16.877C19.5871 16.877 20 16.4641 20 15.925C20 15.6612 19.8968 15.4318 19.7247 15.2597L12.671 8.1716C12.4875 7.97661 12.2581 7.88486 11.9943 7.88486Z" fill="#242426"/>
</svg>
