<svg width="24" height="24" viewBox="0 0 24 24" fill="none" xmlns="http://www.w3.org/2000/svg">
<circle cx="12" cy="12" r="9" stroke="black"/>
<path d="M15.7758 12.8632H17.6793C17.9053 12.8632 18.122 12.7735 18.2817 12.6137C18.4415 12.4539 18.5312 12.2373 18.5312 12.0113C18.5312 11.7854 18.4415 11.5687 18.2817 11.4089C18.122 11.2492 17.9053 11.1594 17.6793 11.1594H16.2444L16.8426 8.98991C16.8722 8.88201 16.8803 8.76933 16.8664 8.65831C16.8525 8.54728 16.8169 8.44008 16.7616 8.34282C16.7062 8.24556 16.6323 8.16016 16.544 8.09148C16.4556 8.0228 16.3546 7.97219 16.2467 7.94254C16.1388 7.9129 16.0262 7.90479 15.9151 7.91869C15.8041 7.93259 15.6969 7.96822 15.5996 8.02355C15.5024 8.07889 15.417 8.15283 15.3483 8.24117C15.2796 8.3295 15.229 8.43051 15.1994 8.5384L14.0853 12.5878L13.009 8.68133C12.8831 8.2213 12.4771 7.91178 12 7.91178C11.7703 7.91012 11.5466 7.98479 11.3639 8.12408C11.1813 8.26338 11.0501 8.45939 10.991 8.68133L9.91568 12.5878L8.80063 8.5384C8.77338 8.42795 8.72427 8.32408 8.65622 8.23292C8.58817 8.14176 8.50255 8.06515 8.40441 8.00761C8.30627 7.95008 8.1976 7.91278 8.08481 7.89792C7.97203 7.88306 7.85741 7.89095 7.74772 7.9211C7.63803 7.95126 7.53549 8.00308 7.44615 8.07351C7.35681 8.14394 7.28248 8.23155 7.22755 8.33117C7.17261 8.43079 7.13819 8.5404 7.12631 8.65354C7.11442 8.76668 7.12532 8.88105 7.15836 8.98991L7.75563 11.1594H6.32065C6.09471 11.1594 5.87803 11.2492 5.71827 11.4089C5.5585 11.5687 5.46875 11.7854 5.46875 12.0113C5.46875 12.2373 5.5585 12.4539 5.71827 12.6137C5.87803 12.7735 6.09471 12.8632 6.32065 12.8632H8.22418L8.90665 15.3432C9.03349 15.8023 9.43861 16.1109 9.91568 16.1109C10.1452 16.1124 10.3688 16.0378 10.5513 15.8987C10.7339 15.7597 10.8652 15.5639 10.9247 15.3423L12 11.4349L12.5381 13.3886L13.0762 15.3423C13.2021 15.8013 13.6073 16.1109 14.0843 16.1109H14.0853C14.3148 16.1124 14.5383 16.0378 14.7209 15.8987C14.9035 15.7597 15.0348 15.5639 15.0943 15.3423L15.7758 12.8632Z" fill="black"/>
</svg>
