<svg width="20" height="20" viewBox="0 0 20 20" fill="none" xmlns="http://www.w3.org/2000/svg">
<path d="M2.7731 17.2179C3.15512 17.588 3.77587 17.588 4.14595 17.2179L9.99552 11.3564L15.857 17.2179C16.2152 17.588 16.8479 17.588 17.2179 17.2179C17.588 16.8359 17.588 16.2152 17.2179 15.857L11.3564 9.99552L17.2179 4.14595C17.588 3.77589 17.6 3.14318 17.2179 2.7731C16.8359 2.41497 16.2152 2.41497 15.857 2.7731L9.99552 8.6346L4.14595 2.7731C3.77587 2.41497 3.14316 2.40301 2.7731 2.7731C2.41496 3.15511 2.41496 3.77589 2.7731 4.14595L8.63461 9.99552L2.7731 15.857C2.41496 16.2152 2.40302 16.8479 2.7731 17.2179Z" fill="#D5D5D5"/>
</svg>
